<?xml version="1.0" encoding="utf-8"?>
<!-- Generator: Adobe Illustrator 18.0.0, SVG Export Plug-In . SVG Version: 6.00 Build 0)  -->
<!DOCTYPE svg PUBLIC "-//W3C//DTD SVG 1.1//EN" "http://www.w3.org/Graphics/SVG/1.1/DTD/svg11.dtd">
<svg version="1.1" id="keepa" xmlns="http://www.w3.org/2000/svg" xmlns:xlink="http://www.w3.org/1999/xlink" x="0px" y="0px"
	 viewBox="0 20 595 110" xml:space="preserve">
<g>
	<g>
		<path fill="#FFFFFF" d="M241.5,126.1h-17.7c0-0.7-3.1-5.4-9.2-14c-7.2-10.1-13.6-18.7-19.6-25.2c-8-9-13.8-13.6-17.7-13.6h-2.5
			c0,12.6,0.2,30.1,0.9,52.9h-15.2c0.9-16.8,1.2-35.2,1.2-55.2c0-18.9-0.4-35.6-1.2-49.9h15.2c-0.4,14.2-0.9,29-0.9,43.6h1.9
			c3.1,0,10.3-7,22.3-20.8c11.7-13.8,17.7-21.4,17.7-23.1h16.8c0,1.6-5.8,8.2-17.3,20c-11.5,11.7-20,19.6-25.7,23.7v0.7
			c6.2,2.3,16.5,13.1,31,32.1C234.8,114.9,241.5,124.5,241.5,126.1z"/>
		<path fill="#FFFFFF" d="M320.4,78.8c0,2.3,0,5.4-0.2,9.4l-55.6,0.9c0.4,7.9,3.7,14.4,9.2,19.8c5.6,5.4,12.9,8,22.1,8
			c8.2,0,15.8-0.9,23.1-3.1l-1.4,11.5c-5.4,2.1-12.9,3.3-22.8,3.3c-14,0-24.6-3.9-31.9-11.5c-7.6-8-11.3-17.3-11.3-28.2
			c0-11.7,3.5-21.9,10.1-30.4c6.7-8.4,15.6-12.6,27.1-12.6c10.3,0,18.4,3.1,23.7,9.2C317.5,61.3,320.4,69.2,320.4,78.8z M306.8,78.8
			c0-15.2-6.4-22.8-19.1-22.8c-12.9,0-20.4,7.9-22.8,23.7L306.8,78.8z"/>
		<path fill="#FFFFFF" d="M405.2,78.8c0,2.3,0,5.4-0.2,9.4l-55.6,0.9c0.4,7.9,3.7,14.4,9.2,19.8c5.6,5.4,12.9,8,22.1,8
			c8.2,0,15.8-0.9,23.1-3.1l-1.4,11.5c-5.4,2.1-12.9,3.3-22.8,3.3c-14,0-24.6-3.9-31.9-11.5c-7.4-7.6-11-17-11-28
			c0-11.7,3.5-21.9,10.1-30.4c6.7-8.5,15.6-12.6,27.1-12.6c10.3,0,18.4,3.1,23.7,9.2C402.7,61.5,405.2,69.2,405.2,78.8z M391.6,78.8
			c0-15.2-6.4-22.8-19.1-22.8c-12.9,0-20.4,7.9-22.8,23.7L391.6,78.8z"/>
		<path fill="#FFFFFF" d="M497.1,84.6c0,11.7-3.3,21.9-9.8,30.6s-15.8,13.1-27.8,13.1c-9.8,0-16.3-1.9-19.6-5.4h-1
			c0,15,0.2,28.2,0.4,40h-15.2c1.2-14.2,1.9-31.9,1.9-53.1c0-25.9-1.4-46-4.2-60.2l14.2-2.1l1.2,8h0.9c5.4-6,13.8-9.2,25.2-9.2
			c10.3,0,18.4,3.7,24.3,11.3C493.7,65.2,497.1,74.1,497.1,84.6z M482.9,86.7c0-8-2.1-14.8-6.2-20.4c-4.2-5.7-10.1-8.4-17.7-8.4
			c-9.6,0-16.5,3.1-21,8.6c0.9,18.1,1.4,33.6,1.4,46.7c4.4,3.7,10.1,5.6,17,5.6c9,0,15.6-3.3,20-9.4
			C480.6,102.9,482.9,95.3,482.9,86.7z"/>
		<path fill="#FFFFFF" d="M576.4,126.1l-12.6,0.4c-0.7-2.5-0.9-5.1-0.9-7.6H562c-6.7,6-15.6,9-27.1,9c-6.2,0-11.5-1.9-16.1-5.6
			c-4.6-3.7-6.7-8.6-6.7-15.6c0-8.2,3.5-15,10.5-20c7-5.1,20-7.6,39.1-8c0.2-1.4,0.2-2.7,0.2-4.4c0-6.7-1.9-11-5.4-13.3
			c-3.5-2.3-9-3.3-16.1-3.3c-8.4,0-16.8,1.2-25,3.3l1.4-11.3c8-2.3,17.5-3.5,27.8-3.5c9.6,0,17,2.1,22.3,6
			c5.4,3.9,7.9,10.8,7.9,20.2c0,2.5-0.2,7.2-0.4,13.8c-0.2,6.7-0.4,11-0.4,13.3C574.3,109.8,575,118.6,576.4,126.1z M562.1,110.5
			c-0.2-8.2-0.4-15.6-0.4-22.1c-10.1,0-17.9,0.7-23.3,2.3c-8.6,2.7-13.3,7.9-13.3,15.4c0,7.4,5.4,11,15.6,11
			C549.8,117.2,556.9,114.9,562.1,110.5z"/>
	</g>
	<g>
		<g>
			<path fill="#FFFFFF" d="M238.3,122.8h-17.7c0-0.7-3.1-5.4-9.2-14c-7.2-10.1-13.6-18.7-19.6-25.2c-8-9-13.8-13.6-17.7-13.6h-2.5
				c0,12.6,0.2,30.1,0.9,52.9h-15.2c0.9-16.8,1.2-35.2,1.2-55.2c0-18.9-0.4-35.6-1.2-49.9h15.2c-0.4,14.2-0.9,29-0.9,43.6h1.9
				c3.1,0,10.3-7,22.3-20.8c11.7-13.8,17.7-21.4,17.7-23.1h16.8c0,1.6-5.8,8.2-17.3,20c-11.5,11.7-20,19.6-25.7,23.7v0.9
				c6.2,2.3,16.5,13.1,31,32.1C231.6,111.7,238.3,121.3,238.3,122.8z"/>
			<path fill="#FFFFFF" d="M316.9,75.5c0,2.3,0,5.4-0.2,9.4l-55.6,0.9c0.4,7.9,3.7,14.4,9.2,19.8c5.6,5.4,12.9,8,22.1,8
				c8.2,0,15.8-0.9,23.1-3.1l-1.4,11.5c-5.4,2.1-12.9,3.3-22.8,3.3c-14,0-24.6-3.9-31.9-11.5c-7.4-7.6-11-17-11-28
				c0-11.7,3.5-21.9,10.1-30.4c6.7-8.4,15.6-12.6,27.1-12.6c10.3,0,18.4,3.1,23.7,9.2C314.4,58.3,316.9,65.9,316.9,75.5z
				 M303.5,75.5c0-15.2-6.4-22.8-19.1-22.8c-12.9,0-20.4,7.9-22.8,23.7L303.5,75.5z"/>
			<path fill="#FFFFFF" d="M401.9,75.5c0,2.3,0,5.4-0.2,9.4l-55.6,0.9c0.4,7.9,3.7,14.4,9.2,19.8c5.6,5.4,12.9,8,22.1,8
				c8.2,0,15.8-0.9,23.1-3.1l-1.4,11.5c-5.4,2.1-12.9,3.3-22.8,3.3c-14,0-24.6-3.9-31.9-11.5c-7.4-7.6-11-17-11-28
				c0-11.7,3.5-21.9,10.1-30.4c6.7-8.5,15.6-12.6,27.1-12.6c10.3,0,18.4,3.1,23.7,9.2C399.4,58.3,401.9,65.9,401.9,75.5z
				 M388.4,75.5c0-15.2-6.4-22.8-19.1-22.8c-12.9,0-20.4,7.9-22.8,23.7L388.4,75.5z"/>
			<path fill="#FFFFFF" d="M493.9,81.3c0,11.7-3.3,21.9-9.8,30.6c-6.7,8.6-15.8,13.1-27.8,13.1c-9.8,0-16.3-1.9-19.6-5.4h-0.9
				c0,15,0.2,28.2,0.4,40H421c1.2-14.2,1.9-31.9,1.9-53.1c0-25.9-1.4-46-4.2-60.2l14.2-2.1l1.2,8h0.9c5.4-6,13.8-9.2,25.2-9.2
				c10.3,0,18.4,3.7,24.3,11.3S493.9,71,493.9,81.3z M479.4,83.4c0-8-2.1-14.8-6.2-20.4c-4.2-5.7-10.1-8.4-17.7-8.4
				c-9.6,0-16.5,3.1-21,8.6c0.9,18.1,1.4,33.6,1.4,46.7c4.4,3.7,10.1,5.6,17,5.6c9,0,15.6-3.3,20-9.4
				C477.3,99.7,479.4,92.1,479.4,83.4z"/>
			<path fill="#FFFFFF" d="M573.1,122.8l-12.6,0.4c-0.7-2.5-0.9-5.1-0.9-7.6h-0.9c-6.7,6-15.6,9-27.1,9c-6.2,0-11.5-1.9-16.1-5.6
				c-4.6-3.7-6.7-8.6-6.7-15.6c0-8.2,3.5-15,10.5-20c7-5.1,20-7.6,39.1-8c0.2-1.4,0.2-2.7,0.2-4.4c0-6.7-1.9-11-5.4-13.3
				c-3.5-2.3-9-3.3-16.1-3.3c-8.4,0-16.8,1.2-25,3.3l1.4-11.3c8-2.3,17.5-3.5,27.8-3.5c9.6,0,17,2.1,22.3,6
				c5.4,3.9,7.9,10.8,7.9,20.2c0,2.5-0.2,7.2-0.4,13.8c-0.2,6.7-0.4,11-0.4,13.3C571.1,106.6,571.7,115.3,573.1,122.8z M558.9,107.2
				c-0.2-8.2-0.4-15.6-0.4-22.1c-10.1,0-17.9,0.7-23.3,2.3c-8.6,2.7-13.3,7.9-13.3,15.4c0,7.4,5.4,11,15.6,11
				C546.5,114,553.6,111.7,558.9,107.2z"/>
		</g>
	</g>
</g>
<g>
	<g>
		<g>
			<circle fill="#A6C2CC" cx="59.2" cy="74.8" r="49.9"/>
		</g>
	</g>
	<g>
		<circle fill="#256A93" cx="56.9" cy="72.2" r="49.9"/>
	</g>
</g>
<g>
	<g>
		<path fill="#002133" d="M91.9,83.5H68.4V107H47V83.5H23.4V62.1H47V38.6h21.4v23.6h23.6C91.9,62.1,91.9,83.5,91.9,83.5z M48.1,63.2
			v19.2H67V63.2H48.1L48.1,63.2z"/>
	</g>
	<g>
		<g>
			<path fill="#FFFFFF" d="M91,82.4H67.5v23.6H45.8V82.4H22.3V61h23.6V37.5h21.4V61h23.6v21.4H91z M47.1,62.1v19.2H66V62.1H47.1
				L47.1,62.1z"/>
		</g>
	</g>
</g>
</svg>
